<svg xmlns="http://www.w3.org/2000/svg" width="19.683" height="24" viewBox="0 0 19.683 24" xml:space="preserve"><path d="M6.341.15c.108.339.525.493.956.385.617-.154.401-.478-.354-.524-.478-.031-.648 0-.602.138m6.26.278c.74.478.663.817-.154.694-.37-.062-.832-.17-1.033-.247s-.4-.092-.447-.046-.093.71-.093 1.496l-.015 1.418 1.126.355c1.156.37 1.418.354 1.418-.047 0-.262.37-.277.586-.015.093.108.231.478.308.801.077.34.416 1.05.77 1.589.973 1.51 1.157 2.22 1.096 4.301L16.1 12.5l1.234.678c.678.37 1.295.678 1.357.678s.308-.4.523-.878c1.11-2.42.17-6.954-2.035-9.683C15.84 1.599 14.914.751 14.452.751c-.232 0-.448-.062-.494-.14-.046-.06-.34-.169-.663-.215-.324-.046-.724-.123-.894-.185s-.077.031.2.216m-5.196.586c-.293.062-.34.139-.277.508.123.586 0 .664-.524.278-.432-.323-.463-.323-1.003-.077-.308.154-.585.417-.632.586-.062.231-.169.293-.431.231-.247-.062-.509.062-.972.447-.77.679-1.033.694-.894.077.124-.632-.154-.6-.956.093-.416.355-.647.678-.647.91 0 .2-.247.647-.556 1.017-.462.556-.54.74-.462 1.203.262 1.866.277 2.205.092 2.56-.138.261-.17.94-.123 2.466.062 1.866.108 2.128.386 2.42l.323.31 1.064-.57c1.866-1.003 1.82-.941 1.588-2.144-.524-2.837.941-5.674 3.608-6.938.602-.293 1.218-.571 1.372-.617.463-.154.417-2.174-.077-2.606C8.115 1.028 7.93.92 7.868.92a5 5 0 0 1-.463.093m-2.883 3.7c.139.34-.154.632-.385.401-.201-.2-.077-.663.154-.663.077 0 .185.124.231.262m-2.683.17c0 .2-.185.34-.339.246-.154-.092-.015-.37.2-.37.077 0 .14.062.14.124"/><path d="M8.47 5.053c-1.527.462-3.023 1.819-3.532 3.175-.4 1.05-.432 2.791-.077 3.824.34.987 1.388 2.098 2.56 2.745.91.493 1.064.524 2.359.524 1.28 0 1.465-.046 2.36-.524 1.171-.633 2.219-1.758 2.558-2.745.417-1.233.231-3.947-.293-4.085-.216-.062-.71 1.433-.616 1.85.246 1.033-1.034 3.253-2.174 3.762-.94.417-1.388.34-1.326-.23.046-.387 0-.434-.309-.387-.277.03-.37.155-.4.54-.063.585-.032.585-1.08.278-2.59-.772-3.47-3.994-1.696-6.153.601-.74 1.82-1.326 2.76-1.326.386 0 .77-.077.848-.154.17-.17 1.141.216 1.141.447 0 .155.925.679 1.033.571.061-.046.2 0 .324.092.17.155.261.124.431-.108.325-.431.216-.709-.477-1.187-1.25-.863-3.193-1.264-4.395-.91m2.158.555c0 .124-.061.232-.138.232-.2 0-.34-.247-.216-.37.17-.17.354-.093.354.138"/><path d="M11.445 9.462c-.046.14-.046.278 0 .324.139.139.416-.093.416-.34 0-.292-.293-.277-.416.016m.493 1.927c.063.093.17.124.247.077.216-.138.17-.231-.108-.231-.123 0-.185.077-.139.154m-8.742 3.624c-.648.385-1.234.755-1.28.848-.139.231.925 1.758 1.666 2.36.447.37 1.14.693 2.127 1.001 1.696.525 1.635.4 1.665 3.007.016 1.356.062 1.68.263 1.758.123.046.354-.031.493-.17.216-.216.262-.556.23-2.02l-.045-1.773h.972c.524 0 1.418-.046 2.003-.108 1.034-.092 1.034-.092 1.034.293 0 .601.37.833.847.524.463-.309.479-.477.078-1.51-.17-.448-.308-.941-.308-1.095 0-.386.385-.325.585.107.14.324.263.37.894.34.664-.016.772-.062 1.08-.556.617-.956 1.187-1.572 1.711-1.82.386-.184.463-.292.34-.43-.2-.247-2.375-1.45-2.622-1.45-.093 0-.509.309-.925.679-2.436 2.19-5.966 2.158-8.619-.062-.4-.34-.802-.617-.863-.617-.077 0-.678.324-1.326.694"/></svg>