<svg xmlns="http://www.w3.org/2000/svg" width="28.707" height="24" viewBox="0 0 28.707 24" xml:space="preserve"><path d="M13.568 1.68c-.418 1.27-.707 1.913-.9 1.977-.322.097-.353.177-.755 2.17-.178.836-.338 1.64-.37 1.769-.033.129.08.225.273.225.257 0 .353-.177.515-.965.353-1.591.852-3.134 1.028-3.134.08 0 .306-.258.482-.563.193-.306.403-.563.467-.563.192 0 .37.61.401 1.286.049.836.853 3.714 1.142 4.035.145.161.322.804.402 1.544.192 1.623.209 1.656.788 1.656.546 0 .675-.402.16-.531-.401-.096-.418-.804-.08-2.331.321-1.383.45-1.608.788-1.334.225.193.257.112.257-.66 0-.997-.29-1.993-.498-1.784-.081.08-.306.643-.515 1.254-.305.868-.466 1.141-.723 1.174-.257.047-.37-.049-.45-.402-.049-.242-.21-.885-.338-1.4-.129-.53-.193-1.124-.129-1.35.097-.417-.723-3.118-1.109-3.649-.193-.273-.29-.096-.836 1.576m-5-.113c-.53.258-.739.66-.996 1.8-.305 1.448-1.319 1.882-2.315.998-.643-.563-.755-.595-.755-.193 0 .466 1.302 1.64 1.816 1.64 1.222 0 2.492-1.287 2.299-2.332-.097-.466-.049-.578.29-.803.642-.434 1.108-.258 1.27.45.144.578.176.61.722.562.306-.032.596-.128.627-.24.049-.113-.24-.5-.643-.885-.385-.386-.755-.82-.803-.98-.129-.338-.82-.354-1.512-.017m8.891.402c-.435.515-.435.788.032.788.145 0 .482.113.74.241.24.129.61.241.803.241.466 0 .627.129 1.125.933.756 1.205 1.93 1.623 2.99 1.077.547-.273.965-.836.965-1.254 0-.257-.112-.21-.643.273-1.06.949-1.881.756-2.476-.61-.434-.981-1.06-1.544-1.72-1.544-.273 0-.594-.145-.739-.322-.386-.434-.596-.401-1.077.177M9.662 5.072c-.226.916-.242 2.733-.017 2.588.097-.048.162-.241.162-.402 0-.546.305-.498.546.08.241.563.74.788.74.322 0-.418-.981-3.295-1.11-3.295-.08 0-.225.321-.321.707m9.323 1.817c-.015.466.05.852.13.852.305 0 .32-.29.112-.981l-.225-.707zm-11.253.064c-.193.579-.112.788.306.788.402 0 .466-.145.29-.772-.178-.643-.37-.659-.596-.016m12.845-.08c-.241.61-.209.707.241.707.418 0 .467-.145.306-.772-.129-.466-.353-.45-.547.065m2.026 1.559c-.29.209-.273.225.145.563.321.257.658.353 1.286.353.61 0 .964.097 1.254.338.24.177.627.337.868.354.354.032.466-.049.498-.338.032-.21-.032-.354-.144-.354-.114 0-.45-.241-.74-.514-.498-.482-.643-.53-1.704-.58-.82-.031-1.253.017-1.463.178m5.016.064c-.644.048-.772.129-.772.386 0 .225.113.305.402.305.578 0 1.575-.434 1.446-.643-.048-.08-.144-.144-.208-.128a14 14 0 0 1-.868.08m-19.903.402c-.08.209-.224.804-.321 1.318-.177 1.03-.322 1.206-.964 1.222-.225 0-.58.113-.805.241s-.69.241-1.044.241c-.933 0-1.85.177-1.85.338 0 .08.981.145 2.171.145 1.608 0 2.202.048 2.235.192.032.113.209 1.03.402 2.026.193 1.013.45 2.026.563 2.25l.224.435.161-.402c.097-.225.273-.723.386-1.11.273-.851.563-1.029.643-.385.032.29.16.466.354.499.257.048.29 0 .193-.306-.242-.868-.466-2.701-.354-2.958.097-.257.128-.257.482-.032.193.144.611.272.916.306.531.047.547.08.531.691 0 .353-.064 1.028-.129 1.478-.128.82-.128.852.242.852.659 0 .804.226 1.125 1.705.306 1.382.595 1.961.917 1.784.192-.129-.724-3.826-1.014-4.051-.112-.096-.24-.723-.305-1.399-.113-1.125-.097-1.286.21-1.672.192-.24.337-.546.337-.691-.017-.225-.033-.225-.177.016-.08.161-.225.29-.305.29-.194 0-.21-.531-.033-.74.08-.08.113-.707.064-1.399l-.064-1.237h-1.141l.129.916c.256 1.897.256 1.897-.596 1.945-.996.064-1.157-.225-1.012-1.752.113-1.174-.08-1.495-.386-.627-.08.257-.193.482-.241.482s-.193-.225-.338-.482c-.305-.611-.98-.675-1.206-.13m.949.885c.305 1.061.241 1.447-.257 1.544-.756.144-.836-.113-.514-1.432.225-.867.546-.916.771-.112m1.382 1.978c-.047.08-.16.16-.256.16-.081 0-.145-.08-.145-.16 0-.097.112-.161.257-.161.128 0 .193.064.144.16m-1.077.274c-.031.225-.209.29-.675.29-.835 0-.948-.354-.145-.45.338-.033.676-.065.74-.081.08-.016.112.096.08.24m2.733.081c-.08.225-.98.37-1.366.225-.434-.176-.032-.418.691-.418.515 0 .707.065.675.193M8.97 13.24c.097.466-.433 2.057-.675 2.057s-.579-1.125-.579-1.93c0-.482.033-.497.596-.449.434.032.627.13.658.322"/><path d="M18.648 8.818c0 .177.08.723.177 1.238.29 1.366.08 1.656-1.27 1.8-.868.08-1.06.065-1.19-.16-.144-.258-.771-.37-.771-.145 0 .08.16.386.337.69.322.499.338.692.225 2.413-.064 1.012-.273 2.491-.466 3.263-.305 1.19-.321 1.447-.145 1.511.354.145.467-.096.853-1.768.289-1.27.402-1.56.643-1.56.177 0 .321.161.386.402.241.933.787 2.186.9 2.058.16-.178.402-1.014.74-2.508.16-.771.32-1.206.4-1.125.098.096.29.61.436 1.157.16.547.353.997.433 1.013.226.016.708-1.624.917-3.087.096-.659.241-1.301.337-1.415.113-.128.756-.192 2.219-.192 1.897 0 2.492-.129 1.816-.386-.144-.048-1.11-.096-2.17-.096-1.093 0-1.913-.065-1.913-.145 0-.097.29-.177.643-.209.723-.048.949-.338.322-.418-1.045-.113-1.094-.145-1.286-1.125-.258-1.222-.418-1.48-.9-1.48-.306 0-.467.129-.66.595l-.256.611-.194-.546c-.209-.627-.563-.852-.563-.386m2.074.997c.273.82.225 1.077-.225 1.27-.707.32-.771.257-.676-.611.114-.885.403-1.56.596-1.35.064.08.192.385.305.69m.305 2.058c-.064.338-.465.434-1.045.29-.385-.097-.401-.113-.112-.322.45-.338 1.222-.321 1.157.032M18.97 13.24c-.016.98-.37 2.813-.61 3.054-.146.144-.403-.193-1.11-1.382-.241-.403-.45-1.929-.306-2.267.065-.177.338-.241 1.06-.241h.966zm1.96.257c-.063.82-.4 1.88-.61 1.88-.176 0-.739-2.17-.627-2.458.048-.145.29-.194.675-.162l.611.048zM3.618 9.09c-.257.113-.627.37-.787.563-.354.385-.82.45-1.014.112C1.656 9.51 0 9.284 0 9.525c0 .193.997.627 1.463.627a.43.43 0 0 1 .418.322c.113.434.53.402 1.495-.097.627-.321.933-.386 1.415-.305.482.08.659.032.9-.225.53-.58.29-.9-.707-.933-.483-.032-1.093.048-1.367.177M.66 13.898c-.916.353-.74.514.53.514 1.078 0 1.239.048 1.657.434.53.515 1.173.772 1.865.772.803 0 1.237-.177 1.237-.466 0-.467-.354-.66-1.221-.66-.596 0-.95-.096-1.254-.337-.531-.418-2.026-.546-2.814-.257"/><path d="M24.725 14.091c-.418.273-.804.402-1.319.402-.964 0-1.221.128-1.221.594 0 .403 0 .403 1.27.354 1.206-.065 1.286-.096 1.96-.707.387-.354.709-.707.709-.805 0-.337-.82-.24-1.4.162m2.123-.162c0 .226.145.29 1.254.467.756.129.675-.29-.113-.514-.82-.258-1.141-.242-1.141.047m-17.04 3.264c0 .353.562 2.331.771 2.701.112.194.177.21.274.065.096-.145.883-2.846.883-3.006 0-.033-.112-.05-.24-.05-.145 0-.338.178-.434.403-.097.225-.242.402-.322.402s-.225-.177-.322-.402c-.208-.467-.61-.547-.61-.113m-3.698.805a.47.47 0 0 1-.305.433c-.627.194-1.657 1.528-1.174 1.528.193 0 1.479-1.254 1.479-1.448 0-.401.804-.144 1.222.403.466.627 1.028.755 1.028.24 0-.562-.82-1.301-1.559-1.399-.627-.08-.691-.063-.691.243m14.774.98c-.724.724-.82 1.142-.225 1.142a.63.63 0 0 0 .578-.37c.483-.884 1.303-.998 2.122-.274.644.563.756.595.756.193 0-.595-1.093-1.318-2.025-1.318-.467 0-.708.129-1.206.627m-13.167 1.88c0 .837.805 1.608 1.817 1.753.595.097.756.177.756.418 0 .434.273.37.836-.177.578-.579.53-.82-.21-1.013-.305-.08-.61-.209-.69-.289-.097-.08-.403-.145-.692-.145-.45 0-.594-.096-.868-.563-.466-.771-.949-.771-.949.017m5.467-.306c0 .29.948 3.264 1.076 3.424.13.145.37-.401.852-1.897.58-1.752.58-1.8.162-1.8-.21 0-.418.193-.596.562-.144.306-.321.563-.385.563s-.21-.257-.306-.563c-.192-.61-.803-.82-.803-.289m4.308.483c-.499.128-.322.674.354 1.141.353.241.691.595.739.787.112.435.788.5 1.495.13.483-.242.98-1.094.98-1.673 0-.514-.755-.466-.964.048-.386 1.045-1.543 1.077-1.64.049-.048-.53-.321-.66-.964-.482"/></svg>