<svg xmlns="http://www.w3.org/2000/svg" width="18.771" height="24" viewBox="0 0 18.771 24" xml:space="preserve"><g fill="#FFF"><path d="M1.243.045 0 .098v16.38L.655 17.8c1.096 2.244 2.926 4.074 5.103 5.117 1.256.6 2.94 1.082 3.808 1.082 1.67 0 4.703-1.59 6.614-3.474 1.002-.989 1.242-1.323 1.87-2.591l.722-1.457-.014-8.136c-.014-4.463-.054-8.177-.107-8.23-.107-.094-15.19-.16-17.408-.067m16.179 1.537c.04.173.08 3.526.08 7.468v7.174l-.347.761c-1.176 2.686-3.74 4.81-6.76 5.612-.855.227-.95.227-1.871 0-3.046-.722-5.598-2.779-6.92-5.558l-.401-.855v-7.36c0-4.049.04-7.402.093-7.442.04-.053 3.674-.093 8.07-.093h7.976z"/><path d="M5.371 4.694c.053 1.483.08 1.59.401 1.857.187.16.988.815 1.777 1.483l1.443 1.19-.508.44c-.28.24-.548.441-.588.441s-.588-.36-1.216-.815l-1.135-.8-.04.855-.04.868.641.615.641.614-.307.267a11 11 0 0 1-.641.495c-.308.227-.334.32-.294 1.148l.04.909 1.71-1.309c2.873-2.205 2.699-2.098 4.074-2.298 1.096-.147 1.257-.214 1.564-.574.187-.214.334-.508.334-.642 0-.307-1.978-1.924-6.747-5.504-1.283-.949-1.176-1.016-1.109.761m7.722.268c-.841.534-1.549 1.028-1.576 1.108-.04.12 1.643 1.43 2.017 1.577.12.04.334-.508.682-1.657.28-.948.494-1.79.468-1.856-.028-.067-.75.307-1.591.828m-2.044 7.014q-.982.18-1.362 1.323c-.241.748-1.67 6.506-1.67 6.76 0 .48 1.843-.495 2.324-1.243.294-.441 1.03-2.685 1.817-5.572.16-.574.32-1.135.36-1.228.08-.2-.587-.214-1.469-.04"/></g></svg>