<?xml version="1.0" encoding="utf-8"?>
<!-- Generator: Adobe Illustrator 16.0.0, SVG Export Plug-In . SVG Version: 6.00 Build 0)  -->
<!DOCTYPE svg PUBLIC "-//W3C//DTD SVG 1.1//EN" "http://www.w3.org/Graphics/SVG/1.1/DTD/svg11.dtd">
<svg version="1.1" id="Layer_1" xmlns="http://www.w3.org/2000/svg" xmlns:xlink="http://www.w3.org/1999/xlink" x="0px" y="0px"
	 width="595.28px" height="841.89px" viewBox="0 0 595.28 841.89" enable-background="new 0 0 595.28 841.89" xml:space="preserve">
<text transform="matrix(1 0 0 1 99.7646 267.353)" font-family="'MonkirtaPursuitNC'" font-size="48" letter-spacing="-2">Netrunner Icon Cache</text>
<g>
	<g>
		<path fill="#4BBAEB" d="M69.176,247.166l-21.281-11.608l21.281-11.607l21.28,11.607L69.176,247.166z M69.176,254.904
			l-20.168-10.979l4.062-2.226l16.106,8.802l16.105-8.802l4.062,2.226L69.176,254.904z M69.176,262.643l-20.168-10.979l4.062-2.225
			l16.106,8.802l16.105-8.802l4.062,2.225L69.176,262.643z M69.176,242.765l13.203-7.207l-13.203-7.207l-13.205,7.207
			L69.176,242.765z"/>
	</g>
	<text transform="matrix(1 0 0 1 54.8818 277.3052)" fill="#4BBAEB" font-family="'MonkirtaPursuitNC'" font-size="21">NIC</text>
</g>
</svg>
