<?xml version="1.0" encoding="utf-8"?>
<!-- Generator: Adobe Illustrator 16.0.0, SVG Export Plug-In . SVG Version: 6.00 Build 0)  -->
<!DOCTYPE svg PUBLIC "-//W3C//DTD SVG 1.1//EN" "http://www.w3.org/Graphics/SVG/1.1/DTD/svg11.dtd">
<svg version="1.1" id="Layer_1" xmlns="http://www.w3.org/2000/svg" xmlns:xlink="http://www.w3.org/1999/xlink" x="0px" y="0px"
	 width="527px" height="74px" viewBox="0 0 527 74" enable-background="new 0 0 527 74" xml:space="preserve">
<g>
	<path fill="#FFFFFF" d="M71.14,27.228l11.719,21.094V27.228h4.688v28.125h-9.375L66.452,34.259v21.094h-4.688V27.228H71.14z"/>
	<path fill="#FFFFFF" d="M113.271,55.353h-18.75c-3.125,0-4.688-1.563-4.688-4.688V36.603c0-3.125,1.563-4.688,4.688-4.688h14.063
		c3.125,0,4.688,1.563,4.688,4.688v9.375H96.865v4.688h16.406V55.353z M96.865,36.603v4.688h9.375v-4.688H96.865z"/>
	<path fill="#FFFFFF" d="M120.246,36.603h-4.688v-4.688h4.688v-7.031l7.031-2.344v9.375h7.031v4.688h-7.031v14.063h7.031v4.688
		h-9.375c-3.125,0-4.688-1.563-4.688-4.688V36.603z"/>
	<path fill="#FFFFFF" d="M153.002,31.916v4.688h-9.375v18.75h-7.031v-18.75c0-3.125,1.563-4.688,4.688-4.688H153.002z"/>
	<path fill="#FFFFFF" d="M162.321,31.916v18.633h9.375V31.916h7.031v23.32h-18.75c-3.125,0-4.688-1.563-4.688-4.688V31.916H162.321z
		"/>
	<path fill="#FFFFFF" d="M197.421,55.236V36.603h-9.375v18.633h-7.031v-23.32h18.75c3.125,0,4.688,1.563,4.688,4.688v18.633H197.421
		z"/>
	<path fill="#FFFFFF" d="M223.146,55.236V36.603h-9.375v18.633h-7.031v-23.32h18.75c3.125,0,4.688,1.563,4.688,4.688v18.633H223.146
		z"/>
	<path fill="#FFFFFF" d="M255.902,55.353h-18.75c-3.125,0-4.688-1.563-4.688-4.688V36.603c0-3.125,1.563-4.688,4.688-4.688h14.063
		c3.125,0,4.688,1.563,4.688,4.688v9.375h-16.406v4.688h16.406V55.353z M239.496,36.603v4.688h9.375v-4.688H239.496z"/>
	<path fill="#FFFFFF" d="M274.596,31.916v4.688h-9.375v18.75h-7.031v-18.75c0-3.125,1.563-4.688,4.688-4.688H274.596z"/>
	<path fill="#FFFFFF" d="M293.233,27.228v28.125h-7.031V27.228H293.233z"/>
	<path fill="#FFFFFF" d="M318.958,50.666v4.688h-18.75c-3.125,0-4.688-1.563-4.688-4.688V36.603c0-3.125,1.563-4.688,4.688-4.688
		h18.75v4.688h-16.406v14.063H318.958z"/>
	<path fill="#FFFFFF" d="M325.934,31.916h14.063c3.125,0,4.688,1.563,4.688,4.688v14.063c0,3.125-1.563,4.688-4.688,4.688h-14.063
		c-3.125,0-4.688-1.563-4.688-4.688V36.603C321.246,33.478,322.809,31.916,325.934,31.916z M328.277,36.603v14.063h9.375V36.603
		H328.277z"/>
	<path fill="#FFFFFF" d="M363.377,55.236V36.603h-9.375v18.633h-7.031v-23.32h18.75c3.125,0,4.688,1.563,4.688,4.688v18.633H363.377
		z"/>
	<path fill="#FFFFFF" d="M407.796,50.666v4.688h-21.094c-3.125,0-4.688-1.563-4.688-4.688v-18.75c0-3.125,1.563-4.688,4.688-4.688
		h21.094v4.688h-18.75v18.75H407.796z"/>
	<path fill="#FFFFFF" d="M426.489,41.291v-4.688h-14.063v-4.688h16.406c3.125,0,4.688,1.563,4.688,4.688v18.75h-18.75
		c-3.125,0-4.688-1.563-4.688-4.688v-4.688c0-3.125,1.563-4.688,4.688-4.688H426.489z M417.114,45.978v4.688h9.375v-4.688H417.114z"
		/>
	<path fill="#FFFFFF" d="M459.246,50.666v4.688h-18.75c-3.125,0-4.688-1.563-4.688-4.688V36.603c0-3.125,1.563-4.688,4.688-4.688
		h18.75v4.688H442.84v14.063H459.246z"/>
	<path fill="#FFFFFF" d="M477.939,55.236V36.603h-9.375v18.633h-7.031V22.541h7.031v9.375h11.719c3.125,0,4.688,1.563,4.688,4.688
		v18.633H477.939z"/>
	<path fill="#FFFFFF" d="M510.696,55.353h-18.75c-3.125,0-4.688-1.563-4.688-4.688V36.603c0-3.125,1.563-4.688,4.688-4.688h14.063
		c3.125,0,4.688,1.563,4.688,4.688v9.375H494.29v4.688h16.406V55.353z M494.29,36.603v4.688h9.375v-4.688H494.29z"/>
</g>
<g>
	<path fill="#4BBAEB" d="M31.176,35.166L9.896,23.558l21.281-11.607l21.28,11.607L31.176,35.166z M31.176,42.904L11.008,31.926
		L15.07,29.7l16.106,8.802L47.281,29.7l4.062,2.226L31.176,42.904z M31.176,50.643L11.008,39.664l4.062-2.225l16.106,8.802
		l16.105-8.802l4.062,2.225L31.176,50.643z M31.176,30.765l13.203-7.207l-13.203-7.207l-13.205,7.207L31.176,30.765z"/>
</g>
<g>
	<path fill="#4BBAEB" d="M20.983,53l5.127,9.229V53h2.051v12.305H24.06l-5.127-9.229v9.229h-2.051V53H20.983z"/>
	<path fill="#4BBAEB" d="M32.763,53v12.305h-3.076V53H32.763z"/>
	<path fill="#4BBAEB" d="M45.568,63.254v2.051H36.34c-1.367,0-2.051-0.684-2.051-2.051v-8.203c0-1.367,0.684-2.051,2.051-2.051
		h9.229v2.051h-8.203v8.203H45.568z"/>
</g>
</svg>
