<svg xmlns="http://www.w3.org/2000/svg" width="24.096" height="24" viewBox="0 0 24.096 24" xml:space="preserve"><path fill="#FFF" d="M15.264.889c6.326.06 10.145 5.215 8.416 11.555C21.948 18.786 15.324 24 8.939 24c-2.089 0-3.879-.533-5.312-1.48l-.896.947.777-1.067C.584 20.445-.729 16.712.404 12.443 2.136 6.103 8.7.947 15.026.888L15.384 0zm-.716 4.029-.777 4.623c1.135.415 1.731 1.541 1.373 2.905-.478 1.658-2.208 3.082-3.938 3.082-.239 0-.537-.061-.776-.119-.059-.059-.119-.059-.179-.059L6.73 19.143c.896.531 2.028.828 3.282.828 4.177 0 8.474-3.377 9.608-7.525 1.074-3.971-1.134-7.29-5.072-7.528m-2.686 4.623 1.672-4.623c-3.999.237-7.997 3.555-9.071 7.527-.716 2.667 0 4.978 1.791 6.34l3.043-4.146-.12-.239c-.298-.532-.418-1.186-.239-1.955.359-1.363 1.553-2.489 2.924-2.904m.777.593c-1.254 0-2.565 1.008-2.925 2.312-.358 1.244.418 2.311 1.671 2.311 1.313 0 2.626-1.065 2.984-2.311.358-1.304-.418-2.312-1.73-2.312M1.838 12.446c-1.015 3.674.119 6.873 2.626 8.652l1.133-1.424c-2.028-1.54-2.924-4.207-2.089-7.229C4.701 7.881 9.357 4.148 13.892 3.91l.656-1.6c-5.549.12-11.219 4.624-12.71 10.136m7.459 10.132c5.608 0 11.397-4.563 12.949-10.134C23.68 6.933 20.456 2.43 15.025 2.31l-.298 1.601c4.477.237 7.103 3.971 5.85 8.533-1.255 4.682-6.147 8.474-10.803 8.474-1.491 0-2.745-.355-3.76-1.007l-1.253 1.362c1.254.831 2.805 1.305 4.536 1.305m2.387-8.769c-.775 0-1.192-.652-1.015-1.363.179-.771.955-1.364 1.729-1.364.776 0 1.193.592 1.015 1.364-.238.71-1.014 1.363-1.729 1.363"/></svg>