<svg xmlns="http://www.w3.org/2000/svg" width="24.576" height="24" viewBox="0 0 24.576 24" xml:space="preserve"><path fill="#FFF" d="M21.176 17.2c-.754 0-1.45.245-2.015.661l-3.859-2.965a4.29 4.29 0 0 0-.268-4.106l4.412-4.413A3.401 3.401 0 0 0 22.733.424a3.4 3.4 0 0 0-4.621 4.618l-4.413 4.413a4.3 4.3 0 0 0-5.933 1.333l-.035.057-3.989-1.354A1.887 1.887 0 0 0 0 9.858a1.89 1.89 0 0 0 3.134 1.421l3.988 1.356a4.3 4.3 0 0 0 7.029 3.759l3.857 2.965A3.4 3.4 0 0 0 21.176 24a3.399 3.399 0 1 0 .004-6.799z"/></svg>