<svg xmlns="http://www.w3.org/2000/svg" width="24" height="24" viewBox="0 0 24 24" xml:space="preserve"><path fill="#FFF" d="m23.561 14.241-1.703-1.412a.945.945 0 0 1 0-1.659l1.703-1.411a.854.854 0 0 0-.429-1.601l-2.181-.368a.949.949 0 0 1-.828-1.436l.77-2.074a.854.854 0 0 0-1.172-1.171l-2.075.771a.948.948 0 0 1-1.436-.828L15.84.868a.85.85 0 0 0-.633-.838.85.85 0 0 0-.965.41l-1.413 1.705a.951.951 0 0 1-1.659-.001L9.76.439a.852.852 0 0 0-1.6.428L7.79 3.05a.95.95 0 0 1-1.437.829l-2.074-.771a.854.854 0 0 0-1.171 1.171l.771 2.075A.95.95 0 0 1 3.05 7.79l-2.183.369A.855.855 0 0 0 .439 9.76l1.705 1.411a.948.948 0 0 1 0 1.658L.439 14.241a.852.852 0 0 0 .429 1.599l2.182.37a.947.947 0 0 1 .829 1.437l-.771 2.074a.855.855 0 0 0 1.17 1.172l2.074-.771a.946.946 0 0 1 1.436.829l.37 2.182a.853.853 0 0 0 1.6.431l1.411-1.705a.947.947 0 0 1 1.66 0l1.41 1.705c.189.342.591.51.968.408.38-.1.641-.446.633-.839l.371-2.182a.947.947 0 0 1 1.437-.829l2.074.771c.336.2.765.147 1.043-.129a.86.86 0 0 0 .129-1.043l-.771-2.074a.948.948 0 0 1 .828-1.437l2.182-.369a.856.856 0 0 0 .428-1.6m-16.56-.846C4.968 12.233 5.79 9.754 5.79 9.754l2.032.813v.011l1.222.485.001-.006 2.052.821c0-.001-1.619 2.933-4.096 1.517m9.997 0c-2.479 1.416-4.096-1.518-4.096-1.518l1.436-.575v-.007l2.566-1.02v.001l1.307-.522c-.001 0 .82 2.478-1.213 3.641"/><path fill="#010101" d="m14.953 11.057 1.224-.491.728-.29v-.001l-2.567 1.02v.007z"/></svg>